<?xml version="1.0" standalone="no"?>
<!DOCTYPE svg PUBLIC "-//W3C//DTD SVG 20010904//EN"
 "http://www.w3.org/TR/2001/REC-SVG-20010904/DTD/svg10.dtd">
<svg version="1.0" xmlns="http://www.w3.org/2000/svg"
 width="512.000000pt" height="512.000000pt" viewBox="0 0 512.000000 512.000000"
 preserveAspectRatio="xMidYMid meet">

<g transform="translate(0.000000,512.000000) scale(0.100000,-0.100000)"
fill="#000000" stroke="none">
<path d="M2426 4985 c-72 -29 -121 -67 -162 -126 -17 -24 -156 -298 -309 -609
-153 -311 -286 -577 -297 -593 -11 -15 -33 -34 -49 -42 -17 -9 -302 -55 -686
-111 -721 -104 -720 -104 -807 -185 -28 -25 -59 -69 -78 -108 -29 -59 -32 -76
-33 -156 0 -79 4 -98 29 -153 26 -57 66 -99 430 -455 221 -215 440 -430 488
-477 66 -65 89 -95 97 -127 10 -36 -1 -114 -100 -685 -120 -699 -124 -735 -81
-831 73 -164 279 -256 447 -199 33 12 314 155 625 319 542 286 567 298 620
298 53 0 77 -12 614 -295 308 -162 587 -306 620 -318 85 -33 196 -28 279 13
69 34 149 116 178 182 44 98 40 132 -80 831 -99 570 -110 649 -100 685 13 48
-17 17 558 578 387 378 427 420 455 479 27 57 31 75 31 150 -1 113 -28 182
-100 256 -93 95 -80 92 -818 199 -379 55 -670 101 -687 110 -16 8 -37 27 -48
42 -11 16 -144 282 -297 593 -153 311 -292 585 -310 610 -94 133 -278 187
-429 125z"/>
</g>
</svg>
